<?xml version="1.0" encoding="utf-8"?>
<!-- Svg Vector Icons : http://www.onlinewebfonts.com/icon -->
<!DOCTYPE svg PUBLIC "-//W3C//DTD SVG 1.1//EN" "http://www.w3.org/Graphics/SVG/1.1/DTD/svg11.dtd">
<svg version="1.1" xmlns="http://www.w3.org/2000/svg" xmlns:xlink="http://www.w3.org/1999/xlink" x="0px" y="0px" viewBox="0 0 1000 1000" enable-background="new 0 0 1000 1000" xml:space="preserve">
<metadata> Svg Vector Icons : http://www.onlinewebfonts.com/icon </metadata>
<g><path d="M500,10C229.4,10,10,229.4,10,500c0,270.7,219.4,490,490,490s490-219.3,490-490C990,229.4,770.6,10,500,10z M366.4,925c-31.4-9.9-61.1-23.4-89.1-39.6v-73.5h89.1V925z M410.9,722.7H232.7v-44.5h178.2V722.7z M410.9,633.6H232.7v-44.5h178.2V633.6z M410.9,544.5H232.7V500h178.2V544.5z M410.9,455.5H232.7v-44.5h178.2V455.5z M633.6,925c-28.6,9-58.4,15.1-89.1,18.2V811.8h89.1V925z M633.6,767.3h-89.1v-89.1h89.1V767.3z M633.6,633.6h-89.1v-89.1h89.1V633.6z M633.6,500h-89.1v-89.1h89.1V500z M767.3,855.7c-27.5,20.7-57.2,38.4-89.1,52.4v-96.3h89.1V855.7z M767.3,767.3h-89.1v-89.1h89.1V767.3z M767.3,633.6h-89.1v-89.1h89.1V633.6z M767.3,500h-89.1v-89.1h89.1V500z M811.8,817.9V366.4H500v579.1c-15,0-29.9-0.8-44.5-2.3V321.8h-44.5v-44.5h-44.5v-89.1h-89.1v89.1h-44.5v44.5h-44.5v496.1C105.8,737,54.5,624.6,54.5,500C54.5,254,254,54.5,500,54.5C746,54.5,945.5,254,945.5,500C945.5,624.6,894.2,737,811.8,817.9z"/></g>
</svg>